{
  "accessors": [
    {
      "bufferView": 2,
      "componentType": 5126,
      "count": 25169,
      "max": [
        2.732865333557129,
        3.118126392364502,
        1.864433765411377
      ],
      "min": [
        -1.913609266281128,
        -3.911470890045166,
        0.02017572708427906
      ],
      "type": "VEC3"
    },
    {
      "bufferView": 2,
      "byteOffset": 302028,
      "componentType": 5126,
      "count": 25169,
      "max": [
        1.0,
        0.9997268915176392,
        0.9999995231628418
      ],
      "min": [
        -1.0,
        -0.9992139339447021,
        -0.9999995231628418
      ],
      "type": "VEC3"
    },
    {
      "bufferView": 3,
      "componentType": 5126,
      "count": 25169,
      "max": [
        0.9999865293502808,
        0.9999944567680359,
        0.9999932050704956,
        1.0
      ],
      "min": [
        -0.999999463558197,
        -0.9999991059303284,
        -0.9999651312828064,
        -1.0
      ],
      "type": "VEC4"
    },
    {
      "bufferView": 1,
      "componentType": 5126,
      "count": 25169,
      "max": [
        0.9915069341659546,
        0.9951090216636658
      ],
      "min": [
        0.006136722397059202,
        0.009594200178980827
      ],
      "type": "VEC2"
    },
    {
      "bufferView": 0,
      "componentType": 5125,
      "count": 136467,
      "type": "SCALAR"
    }
  ],
  "asset": {
    "extras": {
      "author": "dmitriy7776661111 (https://sketchfab.com/dmitriy7776661111)",
      "license": "CC-BY-4.0 (http://creativecommons.org/licenses/by/4.0/)",
      "source": "https://sketchfab.com/3d-models/ice-claw-mouse-43de4d030ae94667bd8b8a478dd371ac",
      "title": "Ice Claw mouse"
    },
    "generator": "Sketchfab-12.66.0",
    "version": "2.0"
  },
  "bufferViews": [
    {
      "buffer": 0,
      "byteLength": 545868,
      "name": "floatBufferViews",
      "target": 34963
    },
    {
      "buffer": 0,
      "byteLength": 201352,
      "byteOffset": 545868,
      "byteStride": 8,
      "name": "floatBufferViews",
      "target": 34962
    },
    {
      "buffer": 0,
      "byteLength": 604056,
      "byteOffset": 747220,
      "byteStride": 12,
      "name": "floatBufferViews",
      "target": 34962
    },
    {
      "buffer": 0,
      "byteLength": 402704,
      "byteOffset": 1351276,
      "byteStride": 16,
      "name": "floatBufferViews",
      "target": 34962
    }
  ],
  "buffers": [
    {
      "byteLength": 1753980,
      "uri": "scene.bin"
    }
  ],
  "images": [
    {
      "uri": "textures/Material.002_baseColor.png"
    },
    {
      "uri": "textures/Material.002_metallicRoughness.png"
    },
    {
      "uri": "textures/Material.002_normal.png"
    }
  ],
  "materials": [
    {
      "doubleSided": true,
      "name": "Material.002",
      "normalTexture": {
        "index": 2
      },
      "pbrMetallicRoughness": {
        "baseColorTexture": {
          "index": 0
        },
        "metallicRoughnessTexture": {
          "index": 1
        }
      }
    }
  ],
  "meshes": [
    {
      "name": "Plane.001_Material.002_0",
      "primitives": [
        {
          "attributes": {
            "NORMAL": 1,
            "POSITION": 0,
            "TANGENT": 2,
            "TEXCOORD_0": 3
          },
          "indices": 4,
          "material": 0,
          "mode": 4
        }
      ]
    }
  ],
  "nodes": [
    {
      "children": [
        1
      ],
      "matrix": [
        1.0,
        0.0,
        0.0,
        0.0,
        0.0,
        -5.053215392444312e-16,
        1.0,
        0.0,
        0.0,
        -1.0,
        -5.053215392444312e-16,
        0.0,
        2.1132211685180664,
        -287.9169006347657,
        130.45315551757807,
        1.0
      ],
      "name": "Sketchfab_model"
    },
    {
      "children": [
        2
      ],
      "matrix": [
        1.0,
        0.0,
        0.0,
        0.0,
        0.0,
        -1.0,
        0.0,
        0.0,
        0.0,
        0.0,
        -1.0,
        0.0,
        0.0,
        0.0,
        0.0,
        1.0
      ],
      "name": "Ice Claw.fbx"
    },
    {
      "children": [
        3
      ],
      "name": "RootNode"
    },
    {
      "children": [
        4
      ],
      "matrix": [
        -6.960485271756943e-06,
        159.23733520507798,
        0.0,
        0.0,
        -159.16203402562962,
        -6.9571937442599555e-06,
        -4.8965138658726515,
        0.0,
        -5.243437094905702,
        -2.291979232191063e-07,
        170.43883386653042,
        0.0,
        0.0,
        0.0,
        -23.17565155029297,
        1.0
      ],
      "name": "Plane.001"
    },
    {
      "mesh": 0,
      "name": "Plane.001_Material.002_0"
    }
  ],
  "samplers": [
    {
      "magFilter": 9729,
      "minFilter": 9987,
      "wrapS": 10497,
      "wrapT": 10497
    }
  ],
  "scene": 0,
  "scenes": [
    {
      "name": "Sketchfab_Scene",
      "nodes": [
        0
      ]
    }
  ],
  "textures": [
    {
      "sampler": 0,
      "source": 0
    },
    {
      "sampler": 0,
      "source": 1
    },
    {
      "sampler": 0,
      "source": 2
    }
  ]
}
